<?xml version="1.0" standalone="no"?><!DOCTYPE svg PUBLIC "-//W3C//DTD SVG 1.1//EN" "http://www.w3.org/Graphics/SVG/1.1/DTD/svg11.dtd"><svg width="200" height="200" viewBox="0 0 200 200" version="1.1" xmlns="http://www.w3.org/2000/svg" xmlns:xlink="http://www.w3.org/1999/xlink"><defs><style type="text/css"><![CDATA[
@font-face { font-family: ifont; src: url("//at.alicdn.com/t/font_1442373896_4754455.eot?#iefix") format("embedded-opentype"), url("//at.alicdn.com/t/font_1442373896_4754455.woff") format("woff"), url("//at.alicdn.com/t/font_1442373896_4754455.ttf") format("truetype"), url("//at.alicdn.com/t/font_1442373896_4754455.svg#ifont") format("svg"); }

]]></style></defs><g class="transform-group"><g transform="scale(0.1953125, 0.1953125)"><path d="M394.791936 971.935744c-10.99264 0-20.890624-6.638592-25.048064-16.787456-0.305152-0.719872-14.30528-33.702912-75.62752-139.4176-34.026496-58.625024-58.930176-117.141504-80.882688-168.747008-19.2-45.147136-37.31968-87.774208-58.768384-124.374016-15.942656-27.242496-16.861184-57.184256-2.555904-82.158592 16.608256-28.972032 51.84-47.684608 89.790464-47.684608 22.582272 0 43.508736 6.26176 61.539328 17.83296l3.058688-254.614528c0.935936-35.555328 21.809152-102.079488 94.162944-102.079488 27.27936 0.395264 48.9984 9.464832 64.454656 26.235904 25.730048 27.90912 25.710592 67.33312 25.334784 76.474368l3.149824 114.044928c11.712512-5.091328 25.101312-7.718912 39.963648-7.718912 37.94944 0.413696 65.118208 11.803648 82.123776 33.936384 3.85024 4.984832 6.890496 10.167296 9.266176 15.384576 14.09024-6.33344 30.357504-9.105408 50.276352-7.647232 27.169792 1.906688 49.555456 12.758016 64.759808 31.381504 7.05536 8.690688 12.09344 18.408448 15.599616 28.466176 14.665728-6.51264 31.922176-7.936 50.419712-3.815424 66.902016 14.8992 79.40608 84.64384 76.690432 120.633344l0.234496 107.838464c0.145408 4.514816 3.111936 130.311168-70.322176 255.44192-50.09408 85.382144-61.106176 105.46176-63.500288 110.031872-1.024 2.680832-2.518016 5.236736-4.425728 7.539712-5.470208 6.565888-14.000128 10.363904-22.472704 9.751552L394.791936 971.935744 394.791936 971.935744zM241.69984 446.90944c-18.299904 0-35.898368 8.438784-42.80832 20.476928-4.642816 8.116224-3.88608 17.23904 2.321408 27.872256 23.176192 39.58784 41.962496 83.7632 61.863936 130.52928 22.38464 52.614144 45.524992 107.02848 77.879296 162.75456 40.772608 70.283264 61.287424 109.508608 71.020544 129.24928l295.407616-0.054272c8.940544-16.067584 25.836544-45.236224 58.317824-100.56704 65.624064-111.833088 62.942208-226.040832 62.906368-227.173376l-0.251904-109.710336c0-0.828416 0.03584-1.619968 0.106496-2.429952 0.16384-2.157568 3.868672-55.817216-34.419712-64.346112-3.132416-0.70144-6.081536-1.043456-8.710144-1.043456-4.389888 0-17.634304 0-24.741888 27.656192-1.296384 9.068544-2.681856 14.737408-2.681856 14.737408-3.382272 13.712384-16.770048 22.509568-30.606336 20.332544-13.945856-2.267136-23.805952-14.754816-22.708224-28.790784 0.090112-1.241088 0.664576-7.573504 2.69824-16.30208 3.273728-26.218496-0.234496-48.54784-9.463808-59.865088-3.617792-4.462592-10.31168-10.45504-26.57792-11.606016-21.753856-1.475584-36.616192 2.321408-39.549952 29.924352l1.061888 26.1632c0.576512 14.125056-9.826304 26.344448-23.896064 27.963392-14.017536 1.92512-27.010048-7.754752-29.725696-21.664768-0.32256-1.619968-2.988032-15.889408-1.71008-33.738752l-0.684032-16.932864c-0.106496-2.609152 0.180224-5.218304 0.809984-7.737344l0 0c0 0 4.463616-20.657152-5.092352-32.874496-8.00768-10.18368-25.229312-12.486656-38.274048-12.63104l-0.017408 0c-17.27488 0-33.199104 4.246528-38.525952 34.349056l1.492992 53.711872c0.396288 14.017536-9.950208 26.002432-23.860224 27.65824-13.981696 1.88928-26.79296-7.575552-29.708288-21.286912-0.251904-1.313792-6.513664-31.471616-2.19648-63.465472l-5.291008-191.023104c-0.036864-0.864256-0.018432-1.709056 0.03584-2.555904 0.361472-6.675456-0.917504-26.846208-11.119616-37.786624-5.28896-5.650432-13.028352-8.493056-23.68-8.619008l0 0c-38.524928 0-40.757248 43.905024-40.900608 48.925696l-3.92192 329.450496c-0.162816 12.973056-9.501696 24.022016-22.27712 26.343424-12.703744 2.212864-25.389056-4.76672-30.067712-16.877568C287.062016 451.695616 254.78144 446.90944 241.69984 446.90944L241.69984 446.90944z" fill="#ffffff"></path></g></g></svg>