<?xml version="1.0" standalone="no"?><!DOCTYPE svg PUBLIC "-//W3C//DTD SVG 1.1//EN" "http://www.w3.org/Graphics/SVG/1.1/DTD/svg11.dtd"><svg width="128.125" height="128" viewBox="0 0 128.125 128" version="1.1" xmlns="http://www.w3.org/2000/svg" xmlns:xlink="http://www.w3.org/1999/xlink"><defs><style type="text/css"><![CDATA[
@font-face { font-family: ifont; src: url("//at.alicdn.com/t/font_1442373896_4754455.eot?#iefix") format("embedded-opentype"), url("//at.alicdn.com/t/font_1442373896_4754455.woff") format("woff"), url("//at.alicdn.com/t/font_1442373896_4754455.ttf") format("truetype"), url("//at.alicdn.com/t/font_1442373896_4754455.svg#ifont") format("svg"); }

]]></style></defs><g class="transform-group"><g transform="scale(0.125, 0.125)"><path d="M512.031932 0c-282.312087 0-512.031932 229.655981-512.031932 512s229.719845 512 512.031932 512 512.031932-229.655981 512.031932-512-229.719845-512-512.031932-512zM512.031932 989.89647c-263.504054 0-477.864538-214.392416-477.864538-477.89647s214.360484-477.89647 477.864538-477.89647 477.864538 214.392416 477.864538 477.89647-214.360484 477.89647-477.864538 477.89647zM623.794437 224.610702l-85.194961 0c-108.505426-1.085693-122.363977 66.067606-122.363977 138.745167l0 52.847699-47.898216 0c-9.419983-1.085693-17.083697 6.54609-15.966072 15.966072l0 95.796433c-1.117625 9.419983 6.54609 17.051765 15.966072 15.966072l47.898216 0 0 239.491081c-0.989896 9.419983 6.641886 17.051765 16.061869 15.966072l97.552701 0c9.419983 1.085693 17.051765-6.54609 14.050143-15.966072l0.063864-239.491081 79.83036 0c9.419983 1.085693 17.083697-6.54609 15.966072-15.966072l0-95.796433c1.117625-9.419983-6.54609-17.051765-15.966072-15.966072l-79.926157 0 0.095796-47.898216c3.097418-20.40464 3.097418-17.083697 22.033179-15.966072l57.126606 0c4.438568-0.989896 9.164525-0.44705 12.485468-3.672197 3.320943-3.225147 5.236872-7.631782 4.119247-12.293876l0-95.796433c1.149557-9.419983-6.514157-17.051765-15.93414-15.966072zM606.71074 318.618935l-40.042909-1.532743c-49.59062 0-53.741799 26.918798-53.741799 54.476238l-0.127729 60.543345c0 4.534364 1.7882 8.877136 4.981414 12.102283 3.193214 3.193214 7.535986 4.981414 12.070351 4.981414l77.978296 0 0 61.692903-77.914432 0c-9.419983 0-17.051765 7.631782-17.083697 17.051765l-0.031932 239.523014-64.63066 0 0-239.491081c0-9.419983-6.418361-17.051765-15.870276-17.051765l-47.994013 0 0-61.692903 47.994013 0c4.534364 0 8.877136-1.7882 12.070351-4.981414 3.193214-3.225147 3.767993-7.567918 3.767993-12.102283l0-68.813771c0-71.591867 14.465261-105.695397 90.431832-105.695397l68.111264 0 0 60.990395z" fill="#f40505"></path></g></g></svg>