<?xml version="1.0" standalone="no"?><!DOCTYPE svg PUBLIC "-//W3C//DTD SVG 1.1//EN" "http://www.w3.org/Graphics/SVG/1.1/DTD/svg11.dtd"><svg width="128" height="128" viewBox="0 0 128 128" version="1.1" xmlns="http://www.w3.org/2000/svg" xmlns:xlink="http://www.w3.org/1999/xlink"><defs><style type="text/css"><![CDATA[
@font-face { font-family: ifont; src: url("//at.alicdn.com/t/font_1442373896_4754455.eot?#iefix") format("embedded-opentype"), url("//at.alicdn.com/t/font_1442373896_4754455.woff") format("woff"), url("//at.alicdn.com/t/font_1442373896_4754455.ttf") format("truetype"), url("//at.alicdn.com/t/font_1442373896_4754455.svg#ifont") format("svg"); }

]]></style></defs><g class="transform-group"><g transform="scale(0.125, 0.125)"><path d="M512 0.512C229.504 0.512 0.512 229.504 0.512 512S229.504 1023.488 512 1023.488 1023.488 794.496 1023.488 512 794.496 0.512 512 0.512zM512 1004.288c-271.424 0-492.288-220.864-492.288-492.288S240.576 19.712 512 19.712 1004.288 240.576 1004.288 512 783.424 1004.288 512 1004.288zM510.784 235.072c58.304 0 112.896 27.712 153.856 78.144 40.832 49.792 64.576 115.904 66.816 186.112l0.128 4.416 2.048 3.904c7.936 15.04 12.928 24.448 16.768 30.336 11.648 24.384 19.328 49.856 21.632 72.192 3.072 25.216-1.728 39.68-6.144 43.968l-2.56 1.856-0.256 0.192c-2.048 1.536-4.16 2.24-6.848 2.24-2.368 0-5.184-0.576-6.912-1.152-5.632-2.496-11.072-6.272-15.744-10.944l-18.88-18.816-11.904 23.872c-1.28 2.56-2.496 5.12-4.928 9.088l-3.84 7.36-4.416 8.384-8.576 17.152 17.152 8.576c6.016 3.008 11.008 6.592 15.68 11.264 5.376 5.376 11.776 13.696 11.776 22.848 0 18.88-23.68 32.384-33.344 37.056-22.592 10.112-52.416 15.68-83.968 15.68-18.24 0-36.864-2.176-52.928-6.144-13.632-3.008-24.64-6.72-34.432-11.648l-8.896-4.48-8.768 4.736c-8.192 4.416-19.328 8.128-34.24 11.456-16.768 3.968-35.2 6.08-53.44 6.08-31.552 0-61.376-5.568-84.032-15.744-15.168-6.656-33.216-18.56-33.216-36.992 0-9.152 6.4-17.472 10.688-21.824 5.056-4.352 10.816-8.64 18.048-12.992l17.28-10.368-11.136-16.768c-2.688-3.968-4.608-8-7.104-13.632l-4.992-9.92-11.2-22.4-18.752 16.64c-7.232 6.4-13.44 10.112-15.872 11.392-2.88 1.152-5.44 1.728-7.552 1.728-1.664 0-3.84-0.32-4.864-0.832-1.152-1.152-2.816-2.432-3.712-2.88-5.504-5.184-10.304-19.648-7.232-45.184C254.272 586.752 262.144 560.832 273.984 536.32c3.264-6.464 12.864-23.36 14.72-26.048l3.648-4.864 0.192-6.08C294.848 428.16 318.528 362.112 359.232 313.408 390.72 275.648 451.584 235.072 510.784 235.072M510.784 215.872c-66.176 0-132.032 44.224-166.272 85.184-42.24 50.56-68.672 120.768-71.168 197.696C270.912 502.08 260.16 521.088 256.832 527.744 243.584 555.008 235.328 583.104 232.832 607.104c-3.328 27.328 0.832 49.6 13.248 61.184 0.832 0.832 2.496 1.664 3.328 2.496 5.824 4.352 11.84 6.464 18.368 6.464 4.672 0 9.536-1.088 14.72-3.136 6.592-3.328 14.08-8.256 21.504-14.912l4.992 9.92c2.496 5.76 4.992 10.752 8.256 15.744-8.256 4.992-14.912 9.92-20.672 14.912-10.752 10.752-17.344 23.168-17.344 36.416 0 23.168 16.576 42.176 44.672 54.592 24 10.752 56.256 17.344 91.84 17.344 20.672 0 40.512-2.496 57.92-6.592 14.912-3.328 28.096-7.424 38.848-13.248 11.584 5.76 24 9.92 38.848 13.248 16.512 4.16 36.416 6.592 57.088 6.592 35.584 0 67.84-6.592 91.84-17.344 27.264-13.248 44.672-32.256 44.672-54.592 0-13.248-6.592-25.664-17.344-36.416-5.76-5.76-12.416-10.752-20.672-14.912 2.496-4.992 5.76-10.752 8.256-15.744 1.664-2.496 3.328-5.76 4.992-9.088 6.592 6.592 14.08 11.584 21.504 14.912 4.928 1.792 9.856 2.752 14.72 2.752 6.464 0 12.672-1.792 18.368-6.08 0.832-0.832 2.496-1.664 3.328-2.496 12.416-11.584 16.512-33.92 13.248-61.184-2.496-24-10.752-52.096-24-79.424-0.832 0-16.512-29.76-16.512-29.76-2.496-77.76-29.76-147.2-71.104-197.696C636.48 248.128 576.896 215.872 510.784 215.872L510.784 215.872z" fill="#d20909"></path></g></g></svg>