<?xml version="1.0" standalone="no"?><!DOCTYPE svg PUBLIC "-//W3C//DTD SVG 1.1//EN" "http://www.w3.org/Graphics/SVG/1.1/DTD/svg11.dtd"><svg width="128" height="128" viewBox="0 0 128 128" version="1.1" xmlns="http://www.w3.org/2000/svg" xmlns:xlink="http://www.w3.org/1999/xlink"><defs><style type="text/css"><![CDATA[
@font-face { font-family: ifont; src: url("//at.alicdn.com/t/font_1442373896_4754455.eot?#iefix") format("embedded-opentype"), url("//at.alicdn.com/t/font_1442373896_4754455.woff") format("woff"), url("//at.alicdn.com/t/font_1442373896_4754455.ttf") format("truetype"), url("//at.alicdn.com/t/font_1442373896_4754455.svg#ifont") format("svg"); }

]]></style></defs><g class="transform-group"><g transform="scale(0.125, 0.125)"><path d="M512 1024c-282.368 0-512-229.696-512-512 0-282.304 229.632-512 512-512 282.304 0 512 229.696 512 512C1024 794.304 794.304 1024 512 1024L512 1024zM512 19.712c-271.488 0-492.288 220.8-492.288 492.288 0 271.424 220.8 492.224 492.288 492.224 271.424 0 492.288-220.8 492.288-492.224C1004.288 240.512 783.424 19.712 512 19.712L512 19.712zM629.184 436.672c8 0 15.936 0.64 23.744 1.472-21.376-99.584-127.808-173.44-249.216-173.44-135.808 0-247.04 92.608-247.04 210.176 0 67.776 37.056 123.52 98.816 166.72l-24.704 74.304 86.336-43.392c30.848 6.144 55.616 12.416 86.528 12.416 7.744 0 15.424-0.384 22.976-1.024-4.8-16.576-7.616-33.792-7.616-51.776C419.136 524.288 511.808 436.672 629.184 436.672L629.184 436.672zM496.384 369.728c18.56 0 30.912 12.16 30.912 30.784 0 18.56-12.352 30.912-30.912 30.912s-37.12-12.352-37.12-30.912C459.264 381.952 477.888 369.728 496.384 369.728L496.384 369.728zM323.52 431.488c-18.56 0-37.312-12.352-37.312-30.912 0-18.624 18.688-30.784 37.312-30.784 18.496 0 30.72 12.16 30.72 30.784C354.24 419.072 342.016 431.488 323.52 431.488L323.52 431.488zM854.656 629.312c0-98.816-98.752-179.328-209.728-179.328-117.568 0-210.176 80.512-210.176 179.328 0 98.944 92.608 179.2 210.176 179.2 24.64 0 49.344-6.144 74.048-12.288l67.84 37.12-18.624-61.76C817.728 734.4 854.656 684.992 854.656 629.312L854.656 629.312zM576.704 598.4c-12.288 0-24.704-12.224-24.704-24.704 0-12.352 12.352-24.768 24.704-24.768 18.688 0 30.912 12.352 30.912 24.768C607.616 586.112 595.392 598.4 576.704 598.4L576.704 598.4zM712.576 598.4c-12.16 0-24.512-12.224-24.512-24.704 0-12.352 12.288-24.768 24.512-24.768 18.56 0 30.976 12.352 30.976 24.768C743.552 586.112 731.136 598.4 712.576 598.4L712.576 598.4zM712.576 598.4" fill="#ea2006"></path></g></g></svg>