<?xml version="1.0" standalone="no"?><!DOCTYPE svg PUBLIC "-//W3C//DTD SVG 1.1//EN" "http://www.w3.org/Graphics/SVG/1.1/DTD/svg11.dtd"><svg width="200" height="200" viewBox="0 0 200 200" version="1.1" xmlns="http://www.w3.org/2000/svg" xmlns:xlink="http://www.w3.org/1999/xlink"><defs><style type="text/css"><![CDATA[
@font-face { font-family: ifont; src: url("//at.alicdn.com/t/font_1442373896_4754455.eot?#iefix") format("embedded-opentype"), url("//at.alicdn.com/t/font_1442373896_4754455.woff") format("woff"), url("//at.alicdn.com/t/font_1442373896_4754455.ttf") format("truetype"), url("//at.alicdn.com/t/font_1442373896_4754455.svg#ifont") format("svg"); }

]]></style></defs><g class="transform-group"><g transform="scale(0.1953125, 0.1953125)"><path d="M512 1020.691438C231.599354 1020.691438 3.308562 792.400646 3.308562 512S231.599354 3.308562 512 3.308562c280.400646 0 508.691438 228.290792 508.691438 508.691438S792.400646 1020.691438 512 1020.691438zM512 11.579968C235.735057 11.579968 11.579968 236.562197 11.579968 512c0 276.264943 224.155089 500.420032 500.420032 500.420032s500.420032-224.155089 500.420032-500.420032C1012.420032 236.562197 788.264943 11.579968 512 11.579968zM270.47496 640.206785c-5.789984 0-10.752827-2.481422-14.061389-6.617124-4.962843-5.789984-6.617124-14.061389-2.481422-21.505654l15.71567-30.6042c-42.184168-35.567044-66.171244-84.368336-66.171244-135.65105 0-104.219709 97.602585-189.415186 217.537964-189.415186l0 0c0 0 0 0 0 0l0 0c103.392569 0 193.550889 63.689822 213.402262 152.193861l0.827141 4.962843-4.962843 0c-54.591276 0-106.701131 19.024233-145.576737 52.936995-40.529887 34.739903-62.035541 81.886914-62.035541 131.515347 0 10.752827 0.827141 21.505654 3.308562 31.431341l0.827141 4.962843-4.962843 0c-32.258481 0-62.862682-5.789984-90.98546-17.369952l-52.109855 20.678514C275.437803 639.379645 272.956381 640.206785 270.47496 640.206785zM421.01454 265.512116C306.042003 265.512116 211.747981 346.57189 211.747981 446.655897c0 49.628433 23.987076 97.602585 66.171244 131.515347l2.481422 2.481422-19.024233 36.394184c-2.481422 4.135703-1.654281 8.271405 1.654281 11.579968 3.308562 3.308562 7.444265 4.135703 11.579968 2.481422l55.418417-22.332795 1.654281 0.827141c26.468498 10.752827 55.418417 16.542811 84.368336 17.369952-1.654281-9.098546-2.481422-19.024233-2.481422-28.122779 0-52.109855 23.159935-100.911147 65.344103-137.305331 39.702746-33.912763 90.98546-53.764136 146.403877-54.591276C603.812601 324.239095 518.617124 265.512116 421.01454 265.512116zM761.796446 795.709208c-5.789984 0-11.579968-0.827141-16.542811-3.308562l-34.739903-14.061389c-24.814216 9.098546-52.109855 13.234249-78.578352 13.234249C526.88853 791.573506 413.570275 717.957997 413.570275 598.849758 413.570275 479.741519 526.88853 406.12601 631.93538 406.12601s217.537964 73.615509 217.537964 192.723748c0 45.49273-18.197092 89.331179-50.455574 123.243942l3.308562 6.617124c9.098546 16.542811 6.617124 37.221325-6.617124 51.282714C787.437803 789.919225 775.030695 795.709208 761.796446 795.709208zM710.513732 769.240711l38.048465 14.88853c14.061389 5.789984 31.431341 1.654281 41.357027-9.925687 10.752827-11.579968 12.407108-28.122779 4.962843-42.184168l-6.617124-12.407108 2.481422-2.481422c32.258481-33.085622 50.455574-75.26979 50.455574-119.93538 0-114.145396-108.355412-184.452342-209.266559-184.452342S421.84168 484.704362 421.84168 598.849758s108.355412 184.452342 209.266559 184.452342c26.468498 0 52.936995-4.135703 77.751212-13.234249L710.513732 769.240711zM500.420032 342.436187c-14.061389 0-25.641357 11.579968-25.641357 25.641357s11.579968 25.641357 25.641357 25.641357 25.641357-11.579968 25.641357-25.641357S514.481422 342.436187 500.420032 342.436187zM344.090468 342.436187c-14.061389 0-25.641357 11.579968-25.641357 25.641357s11.579968 25.641357 25.641357 25.641357 25.641357-11.579968 25.641357-25.641357S358.151858 342.436187 344.090468 342.436187zM708.859451 505.382876c-14.061389 0-25.641357 11.579968-25.641357 25.641357 0 14.061389 11.579968 25.641357 25.641357 25.641357 14.061389 0 25.641357-11.579968 25.641357-25.641357C734.500808 516.962843 722.92084 505.382876 708.859451 505.382876zM552.529887 505.382876c-14.061389 0-25.641357 11.579968-25.641357 25.641357 0 14.061389 11.579968 25.641357 25.641357 25.641357s25.641357-11.579968 25.641357-25.641357C578.171244 516.962843 566.591276 505.382876 552.529887 505.382876z" fill="#000000"></path></g></g></svg>