<?xml version="1.0" standalone="no"?><!DOCTYPE svg PUBLIC "-//W3C//DTD SVG 1.1//EN" "http://www.w3.org/Graphics/SVG/1.1/DTD/svg11.dtd"><svg width="128" height="128" viewBox="0 0 128 128" version="1.1" xmlns="http://www.w3.org/2000/svg" xmlns:xlink="http://www.w3.org/1999/xlink"><defs><style type="text/css"><![CDATA[
@font-face { font-family: ifont; src: url("//at.alicdn.com/t/font_1442373896_4754455.eot?#iefix") format("embedded-opentype"), url("//at.alicdn.com/t/font_1442373896_4754455.woff") format("woff"), url("//at.alicdn.com/t/font_1442373896_4754455.ttf") format("truetype"), url("//at.alicdn.com/t/font_1442373896_4754455.svg#ifont") format("svg"); }

]]></style></defs><g class="transform-group"><g transform="scale(0.125, 0.125)"><path d="M510.822989 0C228.34023 0 0 228.34023 0 510.822989s228.34023 510.822989 510.822989 510.822989 510.822989-228.34023 510.822989-510.822989S793.305747 0 510.822989 0zM510.822989 1016.937931c-280.128736 0-506.114943-225.986207-506.114943-506.114943C4.708046 230.694253 230.694253 4.708046 510.822989 4.708046c280.128736 0 506.114943 225.986207 506.114943 506.114943C1016.937931 790.951724 790.951724 1016.937931 510.822989 1016.937931zM609.691954 200.091954l-193.029885 0c-30.602299 0-54.142529 23.54023-54.142529 54.142529l0 517.885057c0 30.602299 23.54023 54.142529 54.142529 54.142529l193.029885 0c30.602299 0 54.142529-23.54023 54.142529-54.142529l0-517.885057C663.834483 223.632184 637.94023 200.091954 609.691954 200.091954zM652.064368 769.765517c0 21.186207-18.832184 40.018391-40.018391 40.018391l-197.737931 0c-21.186207 0-40.018391-18.832184-40.018391-40.018391l0-517.885057c0-21.186207 18.832184-40.018391 40.018391-40.018391L612.045977 211.862069c21.186207 0 40.018391 18.832184 40.018391 40.018391L652.064368 769.765517zM475.512644 261.296552c0 2.354023 0 2.354023-2.354023 2.354023l0 0c-2.354023 0-2.354023 0-2.354023-2.354023l0 0c0-2.354023 0-2.354023 2.354023-2.354023l0 0C475.512644 258.942529 475.512644 258.942529 475.512644 261.296552L475.512644 261.296552zM390.767816 291.898851l0 440.202299 242.464368 0L633.232184 291.898851 390.767816 291.898851zM628.524138 727.393103l-230.694253 0L397.829885 298.96092l230.694253 0L628.524138 727.393103zM510.822989 743.871264c-14.124138 0-25.894253 11.770115-25.894253 25.894253 0 14.124138 11.770115 25.894253 25.894253 25.894253s25.894253-11.770115 25.894253-25.894253C536.717241 755.641379 524.947126 743.871264 510.822989 743.871264zM510.822989 790.951724c-11.770115 0-21.186207-9.416092-21.186207-21.186207s9.416092-21.186207 21.186207-21.186207 21.186207 9.416092 21.186207 21.186207S522.593103 790.951724 510.822989 790.951724zM510.822989 237.756322m-4.708046 0a0.2 0.2 0 1 0 9.416092 0 0.2 0.2 0 1 0-9.416092 0ZM473.158621 261.296552m-2.354023 0a0.1 0.1 0 1 0 4.708046 0 0.1 0.1 0 1 0-4.708046 0ZM532.009195 261.296552c0 2.354023-2.354023 2.354023-4.708046 2.354023l-35.310345 0c-2.354023 0-4.708046 0-4.708046-2.354023s2.354023-2.354023 4.708046-2.354023l35.310345 0C529.655172 258.942529 532.009195 258.942529 532.009195 261.296552z" fill="#f50707"></path></g></g></svg>