<?xml version="1.0" standalone="no"?><!DOCTYPE svg PUBLIC "-//W3C//DTD SVG 1.1//EN" "http://www.w3.org/Graphics/SVG/1.1/DTD/svg11.dtd"><svg width="200" height="200" viewBox="0 0 200 200" version="1.1" xmlns="http://www.w3.org/2000/svg" xmlns:xlink="http://www.w3.org/1999/xlink"><defs><style type="text/css"><![CDATA[
@font-face { font-family: ifont; src: url("//at.alicdn.com/t/font_1442373896_4754455.eot?#iefix") format("embedded-opentype"), url("//at.alicdn.com/t/font_1442373896_4754455.woff") format("woff"), url("//at.alicdn.com/t/font_1442373896_4754455.ttf") format("truetype"), url("//at.alicdn.com/t/font_1442373896_4754455.svg#ifont") format("svg"); }

]]></style></defs><g class="transform-group"><g transform="scale(0.1953125, 0.1953125)"><path d="M512 10.24c276.48 0 501.76 225.28 501.76 501.76S788.48 1013.76 512 1013.76 10.24 788.48 10.24 512 235.52 10.24 512 10.24M512 0C229.376 0 0 229.376 0 512s229.376 512 512 512 512-229.376 512-512S794.624 0 512 0L512 0zM634.88 737.28 388.096 737.28c-1.024 0-3.072-1.024-3.072-3.072L385.024 288.768c0-1.024 1.024-3.072 3.072-3.072L634.88 285.696c1.024 0 3.072 1.024 3.072 3.072l0 446.464C637.952 736.256 635.904 737.28 634.88 737.28zM390.144 732.16l241.664 0L631.808 291.84 390.144 291.84 390.144 732.16zM464.896 257.024c-1.024 0-1.024 0-2.048-1.024 0 0-1.024-1.024-1.024-2.048 0-1.024 0-1.024 1.024-2.048 1.024-1.024 2.048-1.024 3.072 0 0 1.024 1.024 1.024 1.024 2.048 0 1.024 0 1.024-1.024 2.048C465.92 257.024 465.92 257.024 464.896 257.024zM538.624 257.024l-53.248 0c-1.024 0-3.072-1.024-3.072-3.072s1.024-3.072 3.072-3.072l53.248 0c1.024 0 3.072 1.024 3.072 3.072S539.648 257.024 538.624 257.024zM512 238.592c-1.024 0-1.024 0-2.048-1.024 0 0-1.024-1.024-1.024-2.048 0-1.024 0-1.024 1.024-2.048 1.024-1.024 2.048-1.024 4.096 0 0 0 1.024 1.024 1.024 2.048 0 1.024 0 1.024-1.024 2.048C513.024 238.592 513.024 238.592 512 238.592zM623.616 807.936 400.384 807.936c-3.072 0-5.12-2.048-5.12-5.12s2.048-5.12 5.12-5.12l223.232 0c3.072 0 5.12 2.048 5.12 5.12S626.688 807.936 623.616 807.936zM623.616 807.936c-3.072 0-5.12-2.048-5.12-5.12s2.048-5.12 5.12-5.12c12.288 0 23.552-11.264 23.552-23.552 0-3.072 2.048-5.12 5.12-5.12s5.12 2.048 5.12 5.12C657.408 792.576 642.048 807.936 623.616 807.936zM652.288 780.288c-3.072 0-5.12-2.048-5.12-5.12L647.168 249.856c0-3.072 2.048-5.12 5.12-5.12s5.12 2.048 5.12 5.12l0 525.312C657.408 778.24 655.36 780.288 652.288 780.288zM652.288 253.952c-3.072 0-5.12-2.048-5.12-5.12 0-12.288-11.264-23.552-23.552-23.552-3.072 0-5.12-2.048-5.12-5.12s2.048-5.12 5.12-5.12c18.432 0 33.792 15.36 33.792 33.792C657.408 251.904 655.36 253.952 652.288 253.952zM623.616 225.28 400.384 225.28c-3.072 0-5.12-2.048-5.12-5.12s2.048-5.12 5.12-5.12l223.232 0c3.072 0 5.12 2.048 5.12 5.12S626.688 225.28 623.616 225.28zM371.712 253.952c-3.072 0-5.12-2.048-5.12-5.12 0-18.432 15.36-33.792 33.792-33.792 3.072 0 5.12 2.048 5.12 5.12S403.456 225.28 400.384 225.28c-12.288 0-23.552 11.264-23.552 23.552C376.832 251.904 374.784 253.952 371.712 253.952zM371.712 779.264c-3.072 0-5.12-2.048-5.12-5.12L366.592 248.832c0-3.072 2.048-5.12 5.12-5.12s5.12 2.048 5.12 5.12l0 525.312C376.832 777.216 374.784 779.264 371.712 779.264zM400.384 808.96c-18.432 0-33.792-15.36-33.792-33.792 0-3.072 2.048-5.12 5.12-5.12s5.12 2.048 5.12 5.12c0 12.288 11.264 23.552 23.552 23.552 3.072 0 5.12 2.048 5.12 5.12S403.456 808.96 400.384 808.96zM512 791.552c-12.288 0-23.552-10.24-23.552-23.552s10.24-23.552 23.552-23.552c12.288 0 23.552 10.24 23.552 23.552S524.288 791.552 512 791.552zM512 750.592c-10.24 0-18.432 8.192-18.432 18.432s8.192 18.432 18.432 18.432 18.432-8.192 18.432-18.432S522.24 750.592 512 750.592z" fill="#000000"></path></g></g></svg>